<?xml version="1.0" encoding="utf-8"?>
<svg xmlns="http://www.w3.org/2000/svg" viewBox="0 0 500 500" xmlns:bx="https://boxy-svg.com" width="500px" height="500px"><defs><bx:export><bx:file format="gif" href="#object-0" excluded="true"/><bx:file format="svg" href="#object-0" path="Untitled 2.svg" excluded="true"/><bx:file format="svg" href="#object-0" excluded="true"/><bx:file format="svg" path="Untitled 3.svg"/></bx:export></defs><path style="stroke: rgb(0, 0, 0); fill: rgb(241, 241, 241); pointer-events: none;" d="M 172.329 91.697 C 151.588 93.493 134.883 106.609 119.426 119.691 C 94.544 140.75 68.301 168.645 76.442 204.822 C 82.429 231.424 106.061 248.11 114.22 273.805 C 122.701 300.512 100.69 336.395 130.603 354.137 C 135.297 356.92 140.325 359.152 145.567 360.665 C 179.903 370.574 218.832 365.424 252.082 354.17 C 261.846 350.866 272.462 348.78 280.673 342.074 C 288.084 336.021 291.942 325.767 297.456 318.122 C 302.903 310.568 310.429 304.635 317.017 298.12 C 324.893 290.33 348.439 287.272 359.272 284.134 C 385.155 276.638 398.544 249.729 398.544 224.409 C 398.544 214.484 395.846 206.4 392.576 196.998 C 388.812 186.176 384.943 174.864 380.151 164.437 C 378.198 160.186 370.591 157.098 366.749 155.071 C 352.886 147.758 337.768 143.424 322.757 139.192 C 304.862 134.148 285.26 130.442 266.803 127.948 C 257.419 126.68 248.289 128.458 238.88 125.987 C 222.503 121.685 209.261 111.027 194.328 103.864 C 183.275 98.562 171.625 95.618 160.647 91.343"/><path style="stroke: rgb(0, 0, 0); fill: rgb(246, 210, 118); pointer-events: none;" d="M 234.421 199.201 C 227.051 195.567 220.112 193.684 212.093 191.934 C 193.344 187.843 174.378 203.838 181.37 224.398 C 184.695 234.175 193.357 243.559 200.841 250.434 C 208.156 257.154 219.816 263.841 229.768 258.396 C 236.235 254.859 243 248.168 247.634 242.446 C 253.125 235.667 256.128 226.37 255.039 217.635 C 253.557 205.739 227.042 209.371 225.653 197.663" id="object-0"/></svg>