<?xml version="1.0" encoding="utf-8"?>
<svg id="svg2" viewBox="0 0 500 670" xmlns="http://www.w3.org/2000/svg" xmlns:bx="https://boxy-svg.com" width="500px" height="670px"><desc>Source: openclipart.org/detail/209545</desc><defs><bx:export><bx:file format="svg" href="#object-0"/><bx:file format="svg" href="#object-1" path="Untitled 2.svg"/><bx:file format="svg" href="#object-2" path="Untitled 3.svg"/><bx:file format="svg" href="#object-3" path="Untitled 4.svg"/><bx:file format="svg" href="#object-4" path="Untitled 5.svg"/><bx:file format="svg" href="#object-5" path="Untitled 6.svg"/><bx:file format="svg" href="#object-6" path="Untitled 7.svg"/><bx:file format="svg" href="#object-7" path="Untitled 8.svg"/><bx:file format="svg" href="#object-8" path="Untitled 9.svg"/><bx:file format="svg" href="#object-9" path="Untitled 10.svg"/><bx:file format="svg" href="#object-10" path="Untitled 11.svg"/><bx:file format="svg" href="#object-11" path="Untitled 12.svg"/><bx:file format="svg" href="#object-12" path="Untitled 13.svg"/><bx:file format="svg" href="#object-13" path="Untitled 14.svg"/><bx:file format="svg" href="#object-0" path="Untitled 15.svg"/><bx:file format="svg" path="Untitled 16.svg"/></bx:export></defs><ellipse style="stroke: rgb(0, 0, 0); fill: rgb(238, 238, 238);" cx="250.033" cy="215.873" rx="69.545" ry="65.296" id="object-1"/><ellipse style="stroke: rgb(0, 0, 0); fill: rgb(238, 238, 238);" cx="252.797" cy="362.521" rx="85.987" ry="83.582" id="object-2"/><ellipse style="stroke: rgb(0, 0, 0); fill: rgb(238, 238, 238);" cx="258.444" cy="545" rx="116.607" ry="106.077" id="object-3"/><ellipse style="stroke: rgb(0, 0, 0);" cx="232.339" cy="204.966" rx="9.749" ry="9.073" id="object-4"/><ellipse style="stroke: rgb(0, 0, 0);" cx="274.28" cy="205.324" rx="9.749" ry="9.073" id="object-5"/><path style="stroke: rgb(0, 0, 0); fill: rgb(233, 174, 92);" d="M 245.958 225.39 C 252.574 225.181 259.228 225.251 265.852 225.281 C 269.403 225.297 272.944 225.442 276.495 225.442 C 279.551 225.442 282.482 225.798 285.527 225.798 C 287.112 225.798 291.097 224.906 290.281 225.798 C 288.671 227.558 281.736 227.478 279.132 228.105 C 268.931 230.564 258.549 233.166 248.509 235.851" id="object-6"/><path style="stroke: rgb(0, 0, 0); fill: rgb(222, 46, 46);" d="M 255.056 267.486 C 242.286 267.486 228.499 268.723 215.839 266.505 C 209.856 265.457 191.142 256.554 185.9 261.186 C 184.922 262.05 182.96 264.037 183.395 265.568 C 185.586 273.28 181.805 282.244 184.858 289.189 C 185.635 290.956 185.346 294.24 184.432 295.858 C 183.894 296.811 181.385 298.496 182.479 298.496 C 199.232 298.496 215.123 300.431 232.29 298.807 C 244.908 297.614 257.812 292.627 270.428 293.328 C 274.868 293.575 276.304 293.873 281.049 294.47 C 291.155 295.742 301.275 296.395 311.402 297.149 C 312.804 297.254 321.802 300.614 322.872 299.479 C 325.608 296.578 318.603 289.166 319.03 285.663 C 319.238 283.956 320.663 282.571 320.895 280.83 C 322.639 267.794 314.632 276.836 308.012 273.149 C 305.618 271.816 307.782 265.099 304.44 264.479 C 285.393 260.95 265.477 267.447 246.386 267.447" id="object-7"/><path style="stroke: rgb(0, 0, 0); fill: rgb(155, 21, 21);" d="M 305.156 269.334 C 323.907 250.095 337.259 264.462 358.103 266.71 C 364.849 267.438 370.994 266.103 377.138 263.31 C 378.992 262.467 379.228 262.644 381.242 262.341 C 386.164 261.6 391.118 267.726 395.689 265.094 C 398.817 263.293 400.882 257.638 403.352 256.445 C 404.027 256.12 410.276 262.984 410.8 264.406 C 412.404 268.757 409.469 273.039 410.545 276.508 C 411.923 280.951 422.314 281.069 413.175 288.225 C 407.018 293.045 400.514 286.081 394.077 286.222 C 378.892 286.555 365.878 284.49 351.798 283.355 C 348.269 283.07 346.289 285.944 342.43 285.506 C 339.723 285.199 337.966 281.277 335.191 280.58 C 333.161 280.071 316.896 286.515 315.74 283.048" id="object-8"/><ellipse style="stroke: rgb(0, 0, 0);" cx="253.888" cy="348.552" rx="9.749" ry="9.073" id="object-9"/><ellipse style="stroke: rgb(0, 0, 0);" cx="256.58" cy="399.768" rx="9.749" ry="9.073" id="object-10"/><ellipse style="stroke: rgb(0, 0, 0);" cx="255.571" cy="471.729" rx="9.749" ry="9.073" id="object-11"/><path style="stroke: rgb(0, 0, 0); fill: none;" d="M 223.028 246.21 C 238.91 256.583 252.359 261.286 271.206 255.54 C 276.343 253.974 284.05 252.246 287.077 247.203" id="object-12"/><path style="stroke: rgb(0, 0, 0); fill: rgb(61, 10, 10);" d="M 212.659 129.321 C 198.893 132.414 180.656 135.737 169.69 145.247 C 159.251 154.298 168.11 167.318 179.426 168.692 C 188.238 169.762 195.902 165.714 204.23 163.601 C 214.008 161.121 224.253 159.898 233.779 156.515 C 237.514 155.188 244.769 156.262 248.655 156.21 C 269.472 155.93 290.876 164.339 311.39 162.325 C 322.144 161.27 330.486 144.956 319.957 138.47 C 308.244 131.255 295.235 135.324 282.343 132.969 C 270.297 130.767 261.688 124.507 249.41 123.04 C 239.314 121.834 229.577 121.218 219.675 123.874 C 214.235 125.333 210.09 130.867 204.341 130.867" id="object-13"/><path style="stroke: rgb(0, 0, 0); fill: rgb(61, 10, 10);" d="M 245.834 108.731 C 243.629 108.731 239.985 108.028 238.137 109.556 C 231.936 114.682 235.804 122.14 242.527 122.898 C 248.763 123.6 254.77 113.965 250.817 108.558 C 249.463 106.705 246.69 107.551 244.842 106.964" id="object-0"/></svg>